<?xml version="1.0" encoding="UTF-8" standalone="no"?>
<!-- Created with Inkscape (http://www.inkscape.org/) -->

<svg
   xmlns:dc="http://purl.org/dc/elements/1.1/"
   xmlns:cc="http://creativecommons.org/ns#"
   xmlns:rdf="http://www.w3.org/1999/02/22-rdf-syntax-ns#"
   xmlns:svg="http://www.w3.org/2000/svg"
   xmlns="http://www.w3.org/2000/svg"
   xmlns:sodipodi="http://sodipodi.sourceforge.net/DTD/sodipodi-0.dtd"
   xmlns:inkscape="http://www.inkscape.org/namespaces/inkscape"
   id="svg3334"
   version="1.1"
   inkscape:version="0.48.4 r9939"
   width="744.095"
   height="1052.3625"
   xml:space="preserve"
   sodipodi:docname="circularlogoword.ai"><metadata
     id="metadata3340"><rdf:RDF><cc:Work
         rdf:about=""><dc:format>image/svg+xml</dc:format><dc:type
           rdf:resource="http://purl.org/dc/dcmitype/StillImage" /><dc:title></dc:title></cc:Work></rdf:RDF></metadata><defs
     id="defs3338"><clipPath
       clipPathUnits="userSpaceOnUse"
       id="clipPath3348"><path
         d="m 0,841.89 595.276,0 L 595.276,0 0,0 0,841.89 z"
         id="path3350" /></clipPath></defs><sodipodi:namedview
     pagecolor="#ffffff"
     bordercolor="#666666"
     borderopacity="1"
     objecttolerance="10"
     gridtolerance="10"
     guidetolerance="10"
     inkscape:pageopacity="0"
     inkscape:pageshadow="2"
     inkscape:window-width="1920"
     inkscape:window-height="996"
     id="namedview3336"
     showgrid="false"
     inkscape:zoom="0.89702926"
     inkscape:cx="287.43622"
     inkscape:cy="618.81476"
     inkscape:window-x="-10"
     inkscape:window-y="-10"
     inkscape:window-maximized="1"
     inkscape:current-layer="g3342" /><g
     id="g3342"
     inkscape:groupmode="layer"
     inkscape:label="circularlogoword"
     transform="matrix(1.25,0,0,-1.25,0,1052.3625)"><g
       id="g3344"><g
         id="g3346"
         clip-path="url(#clipPath3348)"><g
           id="g3352"
           transform="translate(423.6396,471.5698)"><path
             d="m 0,0 c 0,-86.886 -70.434,-157.32 -157.32,-157.32 -86.886,0 -157.32,70.434 -157.32,157.32 0,86.886 70.434,157.32 157.32,157.32 C -70.434,157.32 0,86.886 0,0"
             style="fill:#fabf00;fill-opacity:1;fill-rule:nonzero;stroke:none"
             id="path3354" /></g><g
           id="g3356"
           transform="translate(204.5117,592.7495)"><path
             d="m 0,0 c 2.037,-6.691 -3.24,-14.226 -11.788,-16.831 -8.548,-2.604 -17.131,0.709 -19.17,7.4 -2.039,6.691 3.24,14.227 11.787,16.831 C -10.623,10.004 -2.039,6.691 0,0"
             style="fill:#ffffff;fill-opacity:1;fill-rule:nonzero;stroke:none"
             id="path3358" /></g><g
           id="g3360"
           transform="translate(265.562,557.7222)"><path
             d="m 0,0 c 5.62,-16.705 -8.055,-36.377 -30.533,-43.944 -22.485,-7.563 -45.271,-0.157 -50.889,16.544 -5.62,16.701 8.049,36.377 30.533,43.942 C -28.408,24.106 -5.623,16.7 0,0"
             style="fill:#ffffff;fill-opacity:1;fill-rule:nonzero;stroke:none"
             id="path3362" /></g><g
           id="g3364"
           transform="translate(145.5869,370.5928)"><path
             d="m 0,0 c 2.926,40.977 32.329,117.651 110.488,147.807 92.93,35.854 162.444,-23.415 162.444,-70.976 0,0 5.852,-85.609 -94.393,-102.44 -47.896,-8.043 -79.497,23.108 -73.905,58.535 2.196,13.905 10.976,46.831 59.269,52.685 35.568,4.31 75.368,-15.366 75.368,-15.366 0,0 -46.83,49.757 -124.393,26.342 C 59.642,79.911 0,0 0,0"
             style="fill:#ffffff;fill-opacity:1;fill-rule:nonzero;stroke:none"
             id="path3366" /></g><g
           id="g3368"
           transform="translate(146.3174,369.1289)"><path
             d="m 0,0 c 8.049,-9.511 22.934,-36.352 87.807,-51.22 105.368,-24.146 163.905,65.855 163.905,65.855 0,0 -20.487,-27.805 -70.245,-38.049 -47.569,-9.795 -81.692,18.719 -76.099,54.146 2.195,13.903 9.512,50.489 57.805,56.343 35.567,4.31 75.367,-15.366 75.367,-15.366 0,0 -44.476,49.847 -124.392,26.342 C 51.952,79.757 0,0 0,0"
             style="fill:#888888;fill-opacity:1;fill-rule:nonzero;stroke:none"
             id="path3370" /></g><g
           id="g3372"
           transform="translate(438,470.8896)"><path
             d="m 0,0 c 0,-94.44 -76.56,-171 -171,-171 -94.441,0 -171,76.56 -171,171 0,94.44 76.559,171 171,171 C -76.56,171 0,94.44 0,0 z"
             style="fill:none;stroke:#000000;stroke-opacity:1;stroke-width:2;stroke-linecap:butt;stroke-linejoin:miter;stroke-miterlimit:4;stroke-dasharray:none"
             id="path3374" /></g><g
           id="g3376"
           transform="translate(496.3203,468.5698)"><path
             d="m 0,0 c 0,-125.369 -101.632,-227 -227,-227 -125.369,0 -227,101.631 -227,227 0,125.368 101.631,227 227,227 C -101.632,227 0,125.368 0,0 z"
             style="fill:none;stroke:#000000;stroke-opacity:1;stroke-width:2;stroke-linecap:butt;stroke-linejoin:miter;stroke-miterlimit:4;stroke-dasharray:none"
             id="path3378" /></g><g
           id="g3380"
           transform="translate(93,539.8896)"><path
             d="m 0,0 c 0,-7.18 -5.82,-13 -13,-13 -7.18,0 -13,5.82 -13,13 0,7.18 5.82,13 13,13 C -5.82,13 0,7.18 0,0"
             style="fill:#fabf00;fill-opacity:1;fill-rule:nonzero;stroke:none"
             id="path3382" /></g><g
           id="g3384"
           transform="translate(472,539.8896)"><path
             d="m 0,0 c 0,-7.18 -5.82,-13 -13,-13 -7.18,0 -13,5.82 -13,13 0,7.18 5.82,13 13,13 C -5.82,13 0,7.18 0,0"
             style="fill:#fabf00;fill-opacity:1;fill-rule:nonzero;stroke:none"
             id="path3386" /></g><text
           transform="matrix(0.07711198,-0.99702244,-0.99702244,-0.07711198,54.6694,497.3027)"
           id="text3388"><tspan
             style="fill:#231815;fill-opacity:1;fill-rule:nonzero;stroke:none;font-family:Times New Roman;font-variant:normal;font-weight:bold;font-stretch:normal;font-size:41.99995747;writing-mode:lr;-inkscape-font-specification:TimesNewRomanPS-BoldMT"
             x="0"
             y="0"
             id="tspan3390">N</tspan></text>
<text
           transform="matrix(0.14908078,-0.98882264,-0.98882502,-0.14908078,57.4067,464.9961)"
           id="text3392"><tspan
             style="fill:#231815;fill-opacity:1;fill-rule:nonzero;stroke:none;font-family:Times New Roman;font-variant:normal;font-weight:bold;font-stretch:normal;font-size:42.00004967;writing-mode:lr;-inkscape-font-specification:TimesNewRomanPS-BoldMT"
             x="0"
             y="0"
             id="tspan3394">a</tspan></text>
<text
           transform="matrix(0.20261411,-0.97925866,-0.97925866,-0.20261411,60.9985,442.1582)"
           id="text3396"><tspan
             style="fill:#231815;fill-opacity:1;fill-rule:nonzero;stroke:none;font-family:Times New Roman;font-variant:normal;font-weight:bold;font-stretch:normal;font-size:42.00003704;writing-mode:lr;-inkscape-font-specification:TimesNewRomanPS-BoldMT"
             x="0"
             y="0"
             id="tspan3398">t</tspan></text>
<text
           transform="matrix(0.24588096,-0.96930003,-0.96930003,-0.24588096,64.3257,426.418)"
           id="text3400"><tspan
             style="fill:#231815;fill-opacity:1;fill-rule:nonzero;stroke:none;font-family:Times New Roman;font-variant:normal;font-weight:bold;font-stretch:normal;font-size:41.99999859;writing-mode:lr;-inkscape-font-specification:TimesNewRomanPS-BoldMT"
             x="0"
             y="0"
             id="tspan3402">i</tspan></text>
<text
           transform="matrix(0.3029211,-0.95301564,-0.95301564,-0.3029211,67.6255,413.0645)"
           id="text3404"><tspan
             style="fill:#231815;fill-opacity:1;fill-rule:nonzero;stroke:none;font-family:Times New Roman;font-variant:normal;font-weight:bold;font-stretch:normal;font-size:42.00004534;writing-mode:lr;-inkscape-font-specification:TimesNewRomanPS-BoldMT"
             x="0"
             y="0"
             id="tspan3406">o</tspan></text>
<text
           transform="matrix(0.38515665,-0.92285121,-0.92285121,-0.38515665,74.6465,391.0322)"
           id="text3408"><tspan
             style="fill:#231815;fill-opacity:1;fill-rule:nonzero;stroke:none;font-family:Times New Roman;font-variant:normal;font-weight:bold;font-stretch:normal;font-size:42.00005338;writing-mode:lr;-inkscape-font-specification:TimesNewRomanPS-BoldMT"
             x="0"
             y="0"
             id="tspan3410">n</tspan></text>
<text
           transform="matrix(0.47550429,-0.8797134,-0.8797134,-0.47550429,84.5874,367.5732)"
           id="text3412"><tspan
             style="fill:#231815;fill-opacity:1;fill-rule:nonzero;stroke:none;font-family:Times New Roman;font-variant:normal;font-weight:bold;font-stretch:normal;font-size:42.00004206;writing-mode:lr;-inkscape-font-specification:TimesNewRomanPS-BoldMT"
             x="0"
             y="0"
             id="tspan3414">a</tspan></text>
<text
           transform="matrix(0.5486024,-0.83608337,-0.83608337,-0.5486024,95.8066,347.3945)"
           id="text3416"><tspan
             style="fill:#231815;fill-opacity:1;fill-rule:nonzero;stroke:none;font-family:Times New Roman;font-variant:normal;font-weight:bold;font-stretch:normal;font-size:41.99999817;writing-mode:lr;-inkscape-font-specification:TimesNewRomanPS-BoldMT"
             x="0"
             y="0"
             id="tspan3418">l</tspan></text>
<text
           transform="matrix(0.74398136,-0.66820037,-0.66820037,-0.74398136,118.999,315.9814)"
           id="text3420"><tspan
             style="fill:#231815;fill-opacity:1;fill-rule:nonzero;stroke:none;font-family:Times New Roman;font-variant:normal;font-weight:bold;font-stretch:normal;font-size:41.99997685;writing-mode:lr;-inkscape-font-specification:TimesNewRomanPS-BoldMT"
             x="0"
             y="0"
             id="tspan3422">U</tspan></text>
<text
           transform="matrix(0.84545275,-0.53405023,-0.53405023,-0.84545275,143.4355,294.6582)"
           id="text3424"><tspan
             style="fill:#231815;fill-opacity:1;fill-rule:nonzero;stroke:none;font-family:Times New Roman;font-variant:normal;font-weight:bold;font-stretch:normal;font-size:41.99998175;writing-mode:lr;-inkscape-font-specification:TimesNewRomanPS-BoldMT"
             x="0"
             y="0"
             id="tspan3426">n</tspan></text>
<text
           transform="matrix(0.90020622,-0.43546384,-0.43546384,-0.90020622,165.1992,281.4473)"
           id="text3428"><tspan
             style="fill:#231815;fill-opacity:1;fill-rule:nonzero;stroke:none;font-family:Times New Roman;font-variant:normal;font-weight:bold;font-stretch:normal;font-size:42.00004293;writing-mode:lr;-inkscape-font-specification:TimesNewRomanPS-BoldMT"
             x="0"
             y="0"
             id="tspan3430">i</tspan></text>
<text
           transform="matrix(0.93960204,-0.34226892,-0.34226892,-0.93960204,177.5806,275.3281)"
           id="text3432"><tspan
             style="fill:#231815;fill-opacity:1;fill-rule:nonzero;stroke:none;font-family:Times New Roman;font-variant:normal;font-weight:bold;font-stretch:normal;font-size:42.00001544;writing-mode:lr;-inkscape-font-specification:TimesNewRomanPS-BoldMT"
             x="0"
             y="0"
             id="tspan3434">v</tspan></text>
<text
           transform="matrix(0.97171539,-0.23615503,-0.23615503,-0.97171539,199.3623,267.6094)"
           id="text3436"><tspan
             style="fill:#231815;fill-opacity:1;fill-rule:nonzero;stroke:none;font-family:Times New Roman;font-variant:normal;font-weight:bold;font-stretch:normal;font-size:41.99995222;writing-mode:lr;-inkscape-font-specification:TimesNewRomanPS-BoldMT"
             x="0"
             y="0"
             id="tspan3438">e</tspan></text>
<text
           transform="matrix(0.98959433,-0.14388558,-0.14388558,-0.98959433,219.5498,262.8242)"
           id="text3440"><tspan
             style="fill:#231815;fill-opacity:1;fill-rule:nonzero;stroke:none;font-family:Times New Roman;font-variant:normal;font-weight:bold;font-stretch:normal;font-size:42.00003851;writing-mode:lr;-inkscape-font-specification:TimesNewRomanPS-BoldMT"
             x="0"
             y="0"
             id="tspan3442">r</tspan></text>
<text
           transform="matrix(0.99785288,-0.06549527,-0.06549527,-0.99785288,240.0986,259.9824)"
           id="text3444"><tspan
             style="fill:#231815;fill-opacity:1;fill-rule:nonzero;stroke:none;font-family:Times New Roman;font-variant:normal;font-weight:bold;font-stretch:normal;font-size:41.99997901;writing-mode:lr;-inkscape-font-specification:TimesNewRomanPS-BoldMT"
             x="0"
             y="0"
             id="tspan3446">s</tspan></text>
<text
           transform="matrix(0.99996361,-0.00853095,-0.00853095,-0.99996361,258.5161,258.916)"
           id="text3448"><tspan
             style="fill:#231815;fill-opacity:1;fill-rule:nonzero;stroke:none;font-family:Times New Roman;font-variant:normal;font-weight:bold;font-stretch:normal;font-size:42.00002835;writing-mode:lr;-inkscape-font-specification:TimesNewRomanPS-BoldMT"
             x="0"
             y="0"
             id="tspan3450">i</tspan></text>
<text
           transform="matrix(0.99899052,0.04492143,0.04492143,-0.99899052,272.2764,258.8203)"
           id="text3452"><tspan
             style="fill:#231815;fill-opacity:1;fill-rule:nonzero;stroke:none;font-family:Times New Roman;font-variant:normal;font-weight:bold;font-stretch:normal;font-size:41.99999803;writing-mode:lr;-inkscape-font-specification:TimesNewRomanPS-BoldMT"
             x="0"
             y="0"
             id="tspan3454">t</tspan></text>
<text
           transform="matrix(0.99241612,0.12292374,0.12292374,-0.99241612,288.3682,259.4736)"
           id="text3456"><tspan
             style="fill:#231815;fill-opacity:1;fill-rule:nonzero;stroke:none;font-family:Times New Roman;font-variant:normal;font-weight:bold;font-stretch:normal;font-size:42.00002317;writing-mode:lr;-inkscape-font-specification:TimesNewRomanPS-BoldMT"
             x="0"
             y="0"
             id="tspan3458">y</tspan></text>
<text
           transform="matrix(0.93782267,0.34711474,0.34711474,-0.93782267,335.8154,268.3184)"
           id="text3460"><tspan
             style="fill:#231815;fill-opacity:1;fill-rule:nonzero;stroke:none;font-family:Times New Roman;font-variant:normal;font-weight:bold;font-stretch:normal;font-size:41.99994454;writing-mode:lr;-inkscape-font-specification:TimesNewRomanPS-BoldMT"
             x="0"
             y="0"
             id="tspan3462">o</tspan></text>
<text
           transform="matrix(0.89547141,0.44511904,0.44511904,-0.89547141,357.3848,276.6113)"
           id="text3464"><tspan
             style="fill:#231815;fill-opacity:1;fill-rule:nonzero;stroke:none;font-family:Times New Roman;font-variant:normal;font-weight:bold;font-stretch:normal;font-size:42.00000096;writing-mode:lr;-inkscape-font-specification:TimesNewRomanPS-BoldMT"
             x="0"
             y="0"
             id="tspan3466">f</tspan></text>
<text
           transform="matrix(0.73394142,0.67921278,0.67921278,-0.73394142,393.168,297.2949)"
           id="text3468"><tspan
             style="fill:#231815;fill-opacity:1;fill-rule:nonzero;stroke:none;font-family:Times New Roman;font-variant:normal;font-weight:bold;font-stretch:normal;font-size:41.99994612;writing-mode:lr;-inkscape-font-specification:TimesNewRomanPS-BoldMT"
             x="0"
             y="0"
             id="tspan3470">K</tspan></text>
<text
           transform="matrix(0.62218078,0.7828736,0.7828736,-0.62218078,418.2695,321.4023)"
           id="text3472"><tspan
             style="fill:#231815;fill-opacity:1;fill-rule:nonzero;stroke:none;font-family:Times New Roman;font-variant:normal;font-weight:bold;font-stretch:normal;font-size:42.00001132;writing-mode:lr;-inkscape-font-specification:TimesNewRomanPS-BoldMT"
             x="0"
             y="0"
             id="tspan3474">a</tspan></text>
<text
           transform="matrix(0.53253589,0.84640742,0.84640742,-0.53253589,432.5361,339.5732)"
           id="text3476"><tspan
             style="fill:#231815;fill-opacity:1;fill-rule:nonzero;stroke:none;font-family:Times New Roman;font-variant:normal;font-weight:bold;font-stretch:normal;font-size:41.99998611;writing-mode:lr;-inkscape-font-specification:TimesNewRomanPS-BoldMT"
             x="0"
             y="0"
             id="tspan3478">o</tspan></text>
<text
           transform="matrix(0.4424043,0.89681572,0.89681572,-0.4424043,444.7852,359.1797)"
           id="text3480"><tspan
             style="fill:#231815;fill-opacity:1;fill-rule:nonzero;stroke:none;font-family:Times New Roman;font-variant:normal;font-weight:bold;font-stretch:normal;font-size:42.00004425;writing-mode:lr;-inkscape-font-specification:TimesNewRomanPS-BoldMT"
             x="0"
             y="0"
             id="tspan3482">h</tspan></text>
<text
           transform="matrix(0.36629766,0.93049773,0.93049773,-0.36629766,455.8223,382.1172)"
           id="text3484"><tspan
             style="fill:#231815;fill-opacity:1;fill-rule:nonzero;stroke:none;font-family:Times New Roman;font-variant:normal;font-weight:bold;font-stretch:normal;font-size:41.99999506;writing-mode:lr;-inkscape-font-specification:TimesNewRomanPS-BoldMT"
             x="0"
             y="0"
             id="tspan3486">s</tspan></text>
<text
           transform="matrix(0.31377885,0.94949609,0.94949609,-0.31377885,462.4619,399.3408)"
           id="text3488"><tspan
             style="fill:#231815;fill-opacity:1;fill-rule:nonzero;stroke:none;font-family:Times New Roman;font-variant:normal;font-weight:bold;font-stretch:normal;font-size:41.99996218;writing-mode:lr;-inkscape-font-specification:TimesNewRomanPS-BoldMT"
             x="0"
             y="0"
             id="tspan3490">i</tspan></text>
<text
           transform="matrix(0.25322841,0.96740652,0.96740652,-0.25322841,466.8916,412.3955)"
           id="text3492"><tspan
             style="fill:#231815;fill-opacity:1;fill-rule:nonzero;stroke:none;font-family:Times New Roman;font-variant:normal;font-weight:bold;font-stretch:normal;font-size:42.00002708;writing-mode:lr;-inkscape-font-specification:TimesNewRomanPS-BoldMT"
             x="0"
             y="0"
             id="tspan3494">u</tspan></text>
<text
           transform="matrix(0.17817133,0.98399948,0.98399948,-0.17817133,473.2539,437.0488)"
           id="text3496"><tspan
             style="fill:#231815;fill-opacity:1;fill-rule:nonzero;stroke:none;font-family:Times New Roman;font-variant:normal;font-weight:bold;font-stretch:normal;font-size:42.00002222;writing-mode:lr;-inkscape-font-specification:TimesNewRomanPS-BoldMT"
             x="0"
             y="0"
             id="tspan3498">n</tspan></text>
<text
           transform="matrix(0.10420227,0.99455613,0.99455613,-0.10420227,477.6885,462.1328)"
           id="text3500"><tspan
             style="fill:#231815;fill-opacity:1;fill-rule:nonzero;stroke:none;font-family:Times New Roman;font-variant:normal;font-weight:bold;font-stretch:normal;font-size:42.00004298;writing-mode:lr;-inkscape-font-specification:TimesNewRomanPS-BoldMT"
             x="0"
             y="0"
             id="tspan3502">g</tspan></text>
<g
           id="g3504"
           transform="translate(216.1162,673.6143)"><path
             d="m 0,0 c -1.346,-0.767 -1.313,-2.474 -1.029,-3.687 0.283,-1.212 1.717,-2.087 3.738,-1.614 2.021,0.474 4.853,3.329 7.465,4.905 2.518,1.521 8.878,2.297 11.084,2.633 4.655,0.706 15.677,-1.812 17.145,-1.901 1.186,-0.072 2.198,0.49 3.597,0.672 1.107,0.145 2.229,0.788 3.08,1.158 1.449,0.629 5.193,4.645 5.094,5.049 C 49.989,7.964 46.542,6.866 44.756,6.499 42.729,6.083 35.165,6.297 33.176,6.122 31.187,5.945 26.699,5.371 25.579,6.039 c -1.121,0.667 -1.219,3.782 -1.931,4.485 -0.71,0.704 -2.224,1.159 -3.302,1.358 -1.078,0.2 -3.03,0.262 -3.554,-0.491 C 16.271,10.637 17.721,8.231 16.724,6.845 15.727,5.461 11.651,4.215 9.487,3.375 7.32,2.535 1.347,0.768 0,0"
             style="fill:#231815;fill-opacity:1;fill-rule:nonzero;stroke:none"
             id="path3506" /></g><g
           id="g3508"
           transform="translate(226.9272,670.6812)"><path
             d="m 0,0 c -0.163,-1.488 1.94,-1.95 2.513,-3.078 0.57,-1.128 0.432,-3.557 0.474,-4.026 0.041,-0.468 0.407,-1.26 2.076,-0.817 1.671,0.442 3.836,1.32 5.337,1.651 1.792,0.395 4.843,-0.102 6.263,0.495 1.011,0.426 2.188,1.255 2.427,3.222 0.163,1.346 3.581,4.148 0.665,5.128 -1.593,0.536 -4.231,-0.138 -4.526,-0.813 -0.293,-0.675 -0.22,-3.498 -0.414,-3.986 -0.191,-0.489 -7.85,-1.875 -8.226,-1.613 -0.377,0.261 -0.502,0.601 0.007,1.238 1.114,1.396 8.028,2.538 8.028,2.538 0,0 -1.876,-0.107 -1.976,0.356 -0.1,0.463 1.276,0.231 0.959,1.146 C 13.486,1.793 11.786,1.775 10.903,2.028 10.02,2.279 8.604,2.59 8.204,2.554 7.384,2.481 6.187,2.022 5.044,1.625 3.9,1.23 3.075,1.271 1.954,1.235 0.896,1.2 0.059,0.528 0,0"
             style="fill:#231815;fill-opacity:1;fill-rule:nonzero;stroke:none"
             id="path3510" /></g><g
           id="g3512"
           transform="translate(225.9282,659.3335)"><path
             d="m 0,0 c -0.225,-0.786 -0.034,-0.945 -0.167,-1.429 -0.136,-0.484 -1.227,-1.465 -1.681,-2.33 -0.454,-0.866 -0.093,-3.605 -0.196,-4.438 -0.103,-0.835 -0.206,-2.298 -0.088,-3.015 0.127,-0.755 0.616,-2.951 2.047,-3.12 1.225,-0.144 1.445,0.305 2.177,1.372 0.73,1.067 -0.559,4.961 -0.476,6.029 0.083,1.068 0.708,2.658 1.134,3.167 0.427,0.509 3.643,2.799 10.046,3.719 0.922,0.132 3.028,0.278 4.533,0.091 1.309,-0.163 4.758,0.44 5.945,0.07 2.061,-0.642 1.855,-4.964 1.734,-6.271 -0.119,-1.307 0.205,-3.638 0.623,-4.366 0.419,-0.73 1.369,-1.587 2.841,-1.457 0.878,0.078 1.81,0.867 2.084,2.424 0.252,1.428 -0.035,3.689 0.033,4.954 0.067,1.244 -0.031,2.355 -0.173,3.286 C 30.275,-0.383 29.18,1.995 28.542,2.528 27.906,3.062 26.839,3.792 25.659,3.805 24.479,3.819 24.223,3.384 22.458,3.345 20.692,3.307 19.47,3.873 17.684,3.335 16.019,2.834 13.456,2.667 11.743,2.515 9.872,2.349 5.223,0.934 3.165,0.87 1.716,0.826 0.203,0.708 0,0"
             style="fill:#231815;fill-opacity:1;fill-rule:nonzero;stroke:none"
             id="path3514" /></g><g
           id="g3516"
           transform="translate(236.2153,650.3418)"><path
             d="M 0,0 C 0.557,-1.609 1.795,-0.961 2.964,-0.858 4.134,-0.754 6.293,-1.009 6.73,-0.111 7.029,0.505 6.883,1.13 6.544,1.994 6.163,2.963 2.891,1.965 2.034,1.654 0.616,1.139 -0.475,1.372 0,0 m -2.642,4.541 c 1.026,0.31 2.484,0.673 3.282,0.88 C 3.06,6.048 5.575,4.956 6.327,5.099 7.486,5.32 8.199,7.918 11.03,6.577 13.106,5.594 11.144,2.638 10.737,1.245 10.33,-0.146 10.667,-1.295 10.27,-2.804 9.873,-4.313 9.011,-4.565 7.914,-4.84 6.851,-5.107 6.04,-4.18 4.625,-4.306 3.806,-4.378 2.456,-4.44 1.173,-5.26 -0.11,-6.081 -0.854,-6.324 -1.47,-6.025 c -0.616,0.3 -1.517,1.812 -1.701,2.562 -0.184,0.749 -0.279,1.613 -0.457,2.493 -0.21,1.043 -2.216,3.99 -1.674,4.921 0.614,1.057 1.281,0.174 2.66,0.59"
             style="fill:#231815;fill-opacity:1;fill-rule:nonzero;stroke:none"
             id="path3518" /></g><g
           id="g3520"
           transform="translate(98.7124,589.062)"><path
             d="m 0,0 c -0.191,-0.768 -0.337,-1.287 -0.115,-2.026 0.484,-1.605 4.013,-4.886 4.013,-4.886 0,0 3.633,-3.724 5.533,-4.741 0.821,-0.438 2.231,-1.104 3.157,-0.68 1.324,0.608 7.43,8.378 9.397,10.452 2.264,3.025 8.651,8.626 8.864,9.184 0.152,0.395 0.081,0.779 -0.1,1.159 -0.182,0.382 -2.024,2.762 -3.892,5.304 -0.732,0.997 -2.158,2.742 -3.155,4.143 -0.627,0.883 -1.418,2.272 -1.827,2.809 -0.39,0.515 -0.926,1.112 -2.086,0.916 -1.073,-0.18 -1.828,-1.369 -2.395,-2.476 C 15.927,16.304 12.091,15.291 9.321,12.388 7.159,10.123 3.644,5.766 1.912,3.51 1.021,2.352 0.215,0.867 0,0 m -9.336,-5.062 c -0.074,1.366 -0.058,2.052 1.689,4.555 1.32,1.893 5.772,6.419 7.331,7.929 1.671,1.62 9.347,10.98 10.767,12.05 1.838,1.388 3.619,2.149 4.388,2.598 0.817,0.479 2.07,1.253 2.553,1.717 0.484,0.466 0.68,1.143 0.714,1.702 0.035,0.559 -0.238,2.529 1.188,3.84 1.081,0.991 3.478,1.25 4.371,0.198 1.492,-1.754 1.512,-3.008 2.373,-5.037 1.028,-2.426 2.463,-4.533 4.289,-6.972 1.824,-2.438 5.621,-5.7 6.862,-7.205 C 38.318,8.949 38.107,8.125 37.674,7.237 37.312,6.498 36.312,5.649 35.383,5.167 34.484,4.701 33.711,4.906 32.924,4.596 31.742,4.133 25.648,-1.878 24.208,-3.553 c -1.44,-1.673 -6.123,-7.435 -7.381,-10.19 -0.485,-1.059 -0.978,-2.74 -1.623,-3.436 -0.749,-0.81 -1.265,-0.999 -2.636,-1.052 -1.002,-0.04 -2.84,0.758 -4.106,1.596 -1.218,0.805 -8.383,6.14 -8.383,6.14 0,0 -2.484,1.493 -3.804,1.693 -0.865,0.131 -2.676,0.006 -3.708,0.691 -0.965,0.642 -1.852,2.061 -1.903,3.049"
             style="fill:#231815;fill-opacity:1;fill-rule:nonzero;stroke:none"
             id="path3522" /></g><g
           id="g3524"
           transform="translate(108.8672,580.1523)"><path
             d="m 0,0 c -0.067,0.302 0.051,0.46 0.22,0.756 0.167,0.297 1.87,2.11 2.413,2.726 0.544,0.617 3.231,4.158 4.321,5.336 1.089,1.178 4.574,4.862 5.225,5.565 0.652,0.704 3.253,4.269 3.783,4.553 0.529,0.284 1.253,0.16 1.524,-0.038 0.272,-0.197 0.419,-0.478 0.573,-0.767 0.163,-0.312 0.353,-0.941 0.054,-1.411 -0.3,-0.469 -1.66,-1.822 -2.033,-2.198 C 15.451,13.891 11.673,9.976 11.01,9.212 10.163,8.237 5.526,3.194 4.689,1.942 4.327,1.403 3.29,-0.175 2.957,-0.535 2.625,-0.896 1.947,-1.268 1.519,-1.298 1.283,-1.315 0.769,-1.216 0.435,-0.855 0.103,-0.494 0.067,-0.302 0,0"
             style="fill:#231815;fill-opacity:1;fill-rule:nonzero;stroke:none"
             id="path3526" /></g><g
           id="g3528"
           transform="translate(108.314,601.3501)"><path
             d="M 0,0 C 0.061,-0.165 1.442,-0.428 2.667,0.146 3.892,0.72 4.294,1.566 4.313,1.817 4.33,2.067 3.821,2.504 3.428,2.654 3.034,2.806 2.774,2.559 1.683,1.849 0.503,1.082 -0.063,0.164 0,0 M 6.146,-1.31 C 6.073,-1.511 6.953,-1.691 7.184,-1.737 7.415,-1.783 8.462,-2.02 8.598,-1.766 8.716,-1.543 8.335,-1.069 8.242,-0.938 8.103,-0.736 7.694,-0.284 7.364,-0.266 7.035,-0.248 6.191,-1.182 6.146,-1.31 m -6.163,-9.577 c 0,0 -0.14,-1.578 -0.114,-1.868 0.021,-0.238 0.038,-0.578 0.298,-0.702 0.296,-0.14 1.201,1.124 1.412,1.44 0.242,0.364 0.801,1.003 0.651,1.37 -0.136,0.341 -1.147,0.568 -1.667,0.53 -0.416,-0.03 -0.58,-0.77 -0.58,-0.77 M -0.516,-0.111 C 1.761,2.16 2.362,2.26 3.648,3.131 5.65,4.378 6.524,5.225 6.524,5.225 c 0,0 0.099,-0.686 0.563,-0.876 C 7.551,4.16 10.014,6.072 10.469,6.047 10.927,6.023 11.21,5.896 11.573,5.452 11.936,5.01 11.883,4.606 11.696,4.086 11.393,3.248 9.717,2.263 9.638,1.804 9.56,1.344 9.99,-0.031 10.903,-0.432 c 0.987,-0.433 1.608,0.326 2.578,1.029 0.396,0.287 1.332,0.661 1.944,0.2 0.753,-0.564 0.757,-0.911 0.68,-1.426 C 16.041,-1.064 15.3,-1.991 14.469,-2.343 13.637,-2.693 11.58,-2.842 10.627,-4.334 10.128,-5.114 9.556,-8.116 9.268,-8.515 8.978,-8.914 8.473,-9.087 8.071,-9.089 c -0.365,0 -0.583,0.033 -0.883,0.256 -0.299,0.225 -0.458,1.062 -0.337,1.511 0.121,0.448 0.619,1.908 0.06,2.053 -0.48,0.203 -1.871,0.715 -3.04,0.518 C 2.701,-4.95 2.329,-5.366 1.681,-6.139 1.492,-6.365 1.309,-6.542 1.398,-6.733 c 0.092,-0.189 1.935,0.131 2.66,-0.324 0.723,-0.455 1.14,-1.213 1.32,-2.262 0.179,-1.032 -0.349,-2.14 -1.079,-3.56 -0.733,-1.427 -2.127,-3.099 -2.805,-3.669 -0.725,-0.612 -1.858,-1.056 -2.302,-1.366 -0.469,-0.324 -1.089,-1.089 -1.671,-0.481 -0.433,0.456 0.247,3.536 -0.61,4.27 -1.005,0.862 -1.557,-1.131 -1.969,-1.377 -0.419,-0.253 -1.655,-0.843 -2.128,-0.113 -0.335,0.517 -0.088,1.635 0.086,2.213 0.203,0.67 0.686,2.201 1.159,3.048 0.465,0.834 0.892,1.8 1.727,2.84 0.881,1.1 2.03,1.951 1.931,2.435 -0.052,0.246 -0.238,0.333 -0.511,0.572 -0.732,0.636 -2.229,-0.911 -2.229,-0.911 0,0 2.268,3.073 4.507,5.307"
             style="fill:#231815;fill-opacity:1;fill-rule:nonzero;stroke:none"
             id="path3530" /></g><g
           id="g3532"
           transform="translate(160.2246,638.6519)"><path
             d="m 0,0 c 0,0 0.954,-1.108 1.811,-2.046 0.776,-0.849 1.813,-1.412 2.338,-1.565 1.12,-0.326 2.3,0.387 3.39,2.329 C 8.318,0.107 8.232,3.76 5.823,3.971 4.489,4.088 3.837,3.457 2.295,2.183 1.521,1.542 0,0 0,0 m -6.914,11.028 c 0.156,0.986 0.525,1.785 3.567,3.422 2.595,1.397 4.848,0.289 5.817,-0.995 0.97,-1.285 0.925,-2.946 1.234,-3.351 0.396,-0.523 5.933,4.159 7.083,4.761 1.149,0.603 2.001,0.22 2.601,-0.276 0.601,-0.497 1.248,-1.571 0.857,-2.338 -0.948,-1.855 -3.12,-4.764 -2.432,-7.488 0.543,-2.149 1.85,-2.72 2.909,-3.061 1.346,-0.432 5.156,1.563 6.663,2.021 1.885,0.572 5.039,1.589 6.883,2.511 1.602,0.803 3.483,1.786 4.848,2.992 0.315,0.279 1.539,1.297 1.756,1.252 0.216,-0.048 0.297,-0.461 0.333,-0.951 C 35.242,9.039 34.338,4.525 32.854,2.347 32.337,1.588 30.516,-0.638 27.256,-1.759 24.015,-2.873 22.446,-2.535 20.663,-2.663 17.554,-2.882 12.076,-4.807 8.702,-6.799 5.329,-8.792 1.357,-13.762 0.43,-14.986 c -1.385,-1.826 -3.868,-7.718 -4.674,-8.564 -0.862,-0.906 -3.19,-0.942 -4.005,-0.258 -0.618,0.519 -2.018,2.055 -1.868,3.361 0.161,1.409 3.252,4.85 4.611,6.427 1.359,1.576 5.035,5.442 4.973,6.475 -0.06,1.032 -3.021,3.426 -5.015,3.004 -1.447,-0.305 -3.719,0.022 -4.324,1.029 -0.604,1.008 -0.92,1.642 -0.316,2.871 0.68,1.384 7.173,6.291 7.589,6.721 0.364,0.374 0.576,0.697 0.428,1.067 -0.146,0.372 -2.456,0.558 -3.297,0.994 -0.84,0.435 -1.601,1.901 -1.446,2.887"
             style="fill:#231815;fill-opacity:1;fill-rule:nonzero;stroke:none"
             id="path3534" /></g><g
           id="g3536"
           transform="translate(440.9707,601.0664)"><path
             d="m 0,0 c -0.077,-0.525 -0.11,-1.456 0.516,-2.487 0.563,-0.927 1.122,-2.336 2.143,-2.092 1.023,0.244 1.237,0.784 1.461,1.136 0.309,0.484 0.174,1.296 -0.041,2.231 C 3.95,-0.647 3.24,0.597 2.763,1.19 1.619,2.609 1.305,1.749 1.163,1.323 1.057,1.006 0.155,1.051 0,0"
             style="fill:#231815;fill-opacity:1;fill-rule:nonzero;stroke:none"
             id="path3538" /></g><g
           id="g3540"
           transform="translate(439.4551,593.1465)"><path
             d="m 0,0 c -0.339,0.011 -0.66,-0.923 -1.293,-1.029 -0.632,-0.108 -1.602,0.431 -2.04,0.146 -0.438,-0.287 -1.319,-3.616 -1.076,-4.638 0.244,-1.021 1.986,-2.199 1.986,-2.199 0,0 0.713,0.003 0.814,0.796 0.097,0.794 -2.076,3.024 -0.618,3.98 0.911,0.599 2.979,-2.414 3.862,-2.063 1.109,0.442 -0.248,1.24 -0.374,1.968 -0.126,0.727 0.529,0.978 0.053,1.874 C 0.838,-0.269 0.339,-0.012 0,0 M -10.092,8.093 C -10.327,7.688 -8.341,5.928 -8.231,5.77 -8.12,5.611 -7.755,4.379 -8.807,4.387 c -0.992,0.006 -1.392,-0.477 -1.834,-0.05 -0.227,0.219 -0.594,0.694 -0.747,0.96 -0.153,0.268 -0.923,1.046 -1.868,0.916 -0.244,-0.033 -1.015,-0.183 -0.816,-0.579 0.198,-0.397 1.801,-2.028 1.322,-1.559 -0.404,0.395 1.469,-1.53 1.842,-1.872 0.972,-0.898 1.585,-0.404 2.166,-0.519 1.238,-0.248 1.96,-0.681 2.543,-0.227 0.689,0.536 0.136,1.894 0.22,2.54 0.099,0.759 0.562,0.855 0.424,1.758 -0.13,0.842 -0.248,0.857 -0.662,1.25 -0.416,0.392 -0.958,0.169 -1.484,0.421 -0.526,0.251 -1.28,1.395 -1.28,1.395 0,0 -0.873,-0.324 -1.111,-0.728 m 3.876,-8.74 c -0.472,0.183 -1.777,-0.335 -1.94,-0.407 -0.164,-0.072 1.293,-2.3 1.726,-2.293 0.436,0.008 0.576,0.393 0.852,1.101 0.274,0.71 -0.164,1.416 -0.638,1.599 m 3.12,2.149 c 0.381,-0.419 1.38,-0.357 1.8,0.023 0.42,0.381 -0.332,1.559 -0.332,1.559 0,0 -0.911,1.385 -1.574,1.034 C -4.17,3.607 -3.477,1.922 -3.096,1.502 m -2.316,10.062 c -0.359,0.108 -0.816,-0.083 -1.011,-0.399 -0.194,-0.317 0.687,-2.086 1.092,-2.426 0.69,-0.577 1.479,-0.353 1.693,-0.233 0.19,0.105 -0.29,0.845 -0.646,1.742 -0.285,0.721 -0.77,1.21 -1.128,1.316 m 1.079,6.544 c 0.596,-0.199 1.103,-1.346 1.103,-1.346 0,0 0.167,-1.731 0.274,-2.265 0.19,-0.954 2.161,-3.276 1.912,-4.515 C -1.154,9.425 -2.927,8.652 -3.06,8.327 -3.106,8.215 -2.675,8.23 -2.107,7.668 -1.021,6.591 0.64,4.628 0.64,4.628 c 0,0 2.86,-3.395 3.112,-4.355 0.252,-0.961 -0.518,-1.043 -0.207,-1.645 0.324,-0.631 1.025,-1.462 1.479,-1.55 0.454,-0.086 0.767,-0.064 0.98,0.157 0.214,0.221 0.172,0.133 0.009,0.556 -0.165,0.423 -1.526,2.494 -0.438,3.184 0.774,0.492 3.141,-2.128 3.503,-2.453 0.449,-0.402 3.049,0.115 3.851,-0.916 0.8,-1.029 -0.176,-2.394 -1.184,-3.011 -1.006,-0.617 -1.116,-0.264 -1.917,-0.225 -2.462,0.122 -10.44,-4.593 -10.456,-5.209 -0.016,-0.619 0.325,-1.401 1.195,-2.872 0.869,-1.472 1.954,-2.06 2.331,-2.757 0.559,-1.033 0.778,-1.779 0.747,-3.165 -0.019,-0.832 -1.599,-1.865 -2.874,-2.963 -1.042,-0.898 -1.438,-1.787 -2.136,-1.924 -0.785,-0.154 -0.992,-0.001 -1.877,0.854 -0.885,0.855 -1.109,2.157 -1.094,2.895 0.024,1.174 2.61,2.428 2.094,2.123 -1.112,-0.66 0.829,0.675 0.808,1.508 -0.066,2.739 -6.303,12.005 -8.545,14.889 -2.155,2.771 -10.681,10.773 -13.118,9.79 -1.549,-0.626 -2.843,-1.627 -4.069,-1.566 -0.906,0.044 -1.73,0.525 -2.035,1.058 -0.389,0.68 0.553,2.701 1.739,3.505 0.831,0.563 4.607,1.84 6.112,1.554 0.968,-0.183 2.284,-0.502 3.084,-1.532 0.8,-1.029 1.808,-2.493 2.12,-2.469 0.313,0.022 4.013,3.341 4.981,4.006 1.155,0.794 4.851,5.447 5.357,5.785 0.328,0.219 0.88,0.426 1.475,0.228"
             style="fill:#231815;fill-opacity:1;fill-rule:nonzero;stroke:none"
             id="path3542" /></g><g
           id="g3544"
           transform="translate(422.5068,594.3335)"><path
             d="m 0,0 c -0.99,0.497 -1.207,-0.025 -1.386,-0.22 -0.179,-0.194 -0.87,-0.094 -1.08,-0.533 -0.21,-0.438 -0.099,-0.408 0.134,-0.777 0.231,-0.371 4.855,-3.004 5.713,-3.951 0.8,-0.885 2.348,-2.918 2.309,-3.223 C 5.652,-9.01 5.764,-9.931 5.222,-9.801 4.927,-9.73 3.979,-8.565 2.984,-7.803 2.157,-7.17 1.131,-6.856 0.941,-6.804 0.521,-6.689 0.042,-6.926 -0.146,-7.319 -0.23,-7.495 0.729,-9.061 0.718,-9.401 0.706,-9.74 0.314,-9.824 0.053,-9.698 c -0.24,0.114 -8.339,7.395 -8.8,7.421 -0.461,0.028 -1.285,-3.091 -0.348,-4.51 0.277,-0.417 1.046,-1.162 2.053,-1.638 1.137,-0.536 4.279,-3.996 4.279,-3.996 0,0 0.457,-0.761 0.11,-1.306 -0.347,-0.546 -4.051,0.091 -7.191,1.457 -1.996,0.871 -5.534,4.286 -6.312,5.004 -0.641,0.591 -2.989,3.349 -3.049,3.851 -0.062,0.505 0.416,0.598 -0.039,1.183 -0.453,0.582 -1.704,0.491 -2.092,0.355 -0.39,-0.137 -0.37,-0.728 -0.249,-1.241 0.123,-0.509 -0.836,-1.326 -0.962,-2.086 -0.125,-0.759 0.008,-1.571 0.652,-2.614 0.645,-1.041 5.745,-6.008 7.449,-6.995 1.704,-0.987 6.251,-3.237 8.378,-3.444 1.67,-0.161 5.279,0.362 6.016,0.549 0.595,0.15 1.711,-0.433 2.07,-1.034 0.493,-0.829 1.916,-5.228 2.392,-5.628 0.478,-0.401 1.091,0.105 1.488,-10e-4 0.306,-0.082 1.04,-0.842 1.552,-0.721 0.51,0.122 0.62,0.262 0.591,1.01 -0.031,0.748 -2.04,4.251 -2.504,4.992 -0.466,0.74 -2.662,3.989 -2.538,4.468 0.122,0.481 0.62,0.76 1.043,0.924 0.424,0.163 3.79,-0.902 3.932,-1.019 0.73,-0.602 1.234,-0.693 1.788,0.179 0.694,1.089 0.18,3.776 -0.208,4.629 C 9.165,-9.055 6.995,-5.788 5.256,-3.834 3.518,-1.881 0.715,-0.357 0,0"
             style="fill:#231815;fill-opacity:1;fill-rule:nonzero;stroke:none"
             id="path3546" /></g><g
           id="g3548"
           transform="translate(373.8301,649.7681)"><path
             d="m 0,0 c -0.645,-0.198 -9.634,3.218 -10.766,2.904 -1.13,-0.313 -1.415,-0.873 -1.931,-1.668 -0.519,-0.793 0.157,-2.262 0.739,-2.718 0.581,-0.456 1.395,-0.415 2.053,-0.774 0.658,-0.359 1.138,-0.944 1.745,-1.367 0.608,-0.423 2.102,-0.447 2.609,-1.001 0.505,-0.552 -0.464,-1.723 -1.414,-2.334 -0.948,-0.614 -5.664,-1.771 -6.934,-1.662 -1.189,0.102 -2.984,0.252 -3.745,0.482 -0.849,0.256 -3.88,1.356 -4.257,2.552 -0.192,0.61 -0.179,2.437 -1.491,1.43 -0.787,-0.606 -1.426,-2.25 -1.367,-2.946 0.073,-0.839 0.33,-2.103 1.647,-2.959 1.686,-1.096 8.479,-3.786 10.325,-3.864 5.08,-0.212 7.937,0.876 8.597,0.984 0.64,0.108 0.727,0.28 1.076,-0.424 0.968,-1.959 0.791,-11.735 1.216,-13.77 0.349,-1.683 2.778,-5.165 4.525,-6.064 1.689,-0.87 3.274,-1.626 4.102,-1.388 0.475,0.137 0.645,0.21 1.247,0.312 0.602,0.103 1.03,-0.781 1.861,-0.243 0.756,0.49 -0.819,2.884 -1.664,4.07 -0.985,1.376 -4.256,5.419 -5.782,10.528 -0.757,2.531 -1.976,8.797 -0.469,11.32 0.401,0.67 1.795,-0.572 3.031,-1.591 1.235,-1.02 2.068,-2.02 3.402,-2.98 1.657,-1.191 3.697,-0.897 4.412,-0.104 0.865,0.962 0.625,1.873 0.447,2.245 -0.209,0.44 -0.361,0.334 -0.816,0.952 -0.456,0.618 -0.333,1.043 -1.065,1.773 -0.732,0.73 -5.145,3.049 -5.602,3.502 -0.5,0.496 0.081,2.701 1.065,3.756 0.982,1.056 1.956,1.233 2.446,1.526 0.491,0.293 1.373,1.219 1.507,2.522 C 10.828,3.765 9.973,5.071 9.114,5.64 8.422,6.098 8.285,6.914 7.627,7.273 6.666,7.798 5.977,7.209 5.657,6.887 5.16,6.389 1.1,0.339 0,0"
             style="fill:#231815;fill-opacity:1;fill-rule:nonzero;stroke:none"
             id="path3550" /></g><g
           id="g3552"
           transform="translate(294.853,659.6323)"><path
             d="M 0,0 C 0.814,-0.561 1.424,-0.425 1.841,-0.23 2.258,-0.036 2.683,0.238 2.881,0.614 3.078,0.991 3.038,2.901 2.841,2.921 2.644,2.941 2.112,2.4 1.252,2.132 0.391,1.865 -0.994,2.682 -0.908,2.356 -0.824,2.029 -0.816,0.56 0,0 m 0.498,20.188 c 1.16,-0.046 2.159,-1.242 2.701,-2.66 0.618,-1.622 0.292,-3.125 0.503,-3.584 0.421,-0.917 2.579,-0.385 3.452,-1.15 C 7.815,12.216 7.417,11.177 7.137,10.692 6.22,9.12 3.683,10.295 3.189,9.75 2.697,9.206 1.303,6.85 1.281,6.256 1.271,5.979 1.111,5.732 2.28,5.559 3.043,5.445 3.499,4.678 3.829,4.802 4.16,4.928 4.815,5.892 5.893,6.335 6.969,6.78 7.932,6.371 8.372,5.743 8.821,5.101 8.98,3.953 8.711,3.266 8.441,2.58 8.06,2.19 7.474,2.045 6.333,1.767 6.6,0.433 6.503,-0.037 6.269,-1.164 4.346,-2.869 3.265,-3.354 1.693,-4.056 -1.863,-4.465 -3.642,-3.751 c -0.801,0.321 -1.957,1.435 -1.934,2.383 0.038,1.543 -0.314,1.918 -0.676,1.934 -0.671,0.03 -1.966,-1.742 -3.691,-1.921 -1.724,-0.179 -3.474,0.557 -4.11,0.94 -0.635,0.384 -1.427,1.022 -1.229,2.31 0.12,0.781 0.205,1.071 1.082,1.635 0.637,0.411 2.362,-0.561 3.328,-0.621 0.966,-0.061 2.453,0.501 3.288,0.89 0.834,0.391 1.451,2.188 1.885,2.504 0.429,0.313 1.662,0.344 2.175,0.688 0.511,0.344 1.582,1.107 1.725,1.727 0.144,0.62 0.446,0.866 -0.008,1.072 -0.456,0.206 -4.757,-1.096 -5.921,-0.459 -1.165,0.635 -1.48,1.422 -1.186,2.74 0.295,1.32 2.041,1.695 2.889,1.846 0.85,0.15 4.832,-0.103 5.358,0.002 0.528,0.104 -0.033,1.523 -0.347,2.02 -0.375,0.594 -2.246,1.303 -1.806,2.488 0.44,1.185 1.692,1.825 3.318,1.761"
             style="fill:#231815;fill-opacity:1;fill-rule:nonzero;stroke:none"
             id="path3554" /></g><g
           id="g3556"
           transform="translate(308.9746,656.1104)"><path
             d="m 0,0 c -0.179,-0.175 -0.479,-1.756 -0.198,-1.924 0.216,-0.13 0.721,-0.313 1.595,-0.284 0.751,0.024 0.98,0.256 1.205,0.51 0.224,0.255 0.355,1.906 0.031,2.219 C 2.129,1.01 1.58,0.709 1.062,0.684 0.543,0.658 0.22,0.215 0,0 M 0.437,6.542 C 0.255,6.323 0.052,5.51 0.333,5.343 0.55,5.213 0.891,4.789 1.789,4.657 2.533,4.547 2.92,4.46 3.145,4.715 3.371,4.97 3.607,6.314 3.215,6.534 2.781,6.774 2.164,6.94 1.646,6.914 1.127,6.887 0.619,6.762 0.437,6.542 m 0.53,4.748 C 0.785,11.07 0.858,10.626 0.995,10.412 1.132,10.201 1.669,10.027 2.419,9.989 3.169,9.95 3.543,10.11 3.769,10.366 3.992,10.62 3.687,11.705 3.521,11.82 3.113,12.099 2.827,12.01 2.308,11.984 1.789,11.958 1.147,11.51 0.967,11.29 m -2.97,5.822 c 0.24,-0.194 2.891,-0.814 3.946,-0.209 0.851,0.488 2.909,2.796 2.108,3.116 -0.8,0.321 -2.132,0.149 -3.693,-0.412 -1.032,-0.37 -1.2,-0.86 -1.677,-1.256 -0.668,-0.55 -1.111,-0.894 -0.684,-1.239 M 2.2,28.623 c 1.57,-0.189 2.288,-1.595 2.953,-2.924 0.461,-0.92 0.07,-1.635 0.868,-2.352 1.106,-0.993 3.849,1.151 5.34,1.751 1.492,0.6 2.584,-0.347 3.108,-1.035 0.524,-0.689 0.25,-2.396 -0.096,-2.848 -0.733,-0.956 -1.157,0.318 -2.997,-1.357 -0.457,-0.416 -2.49,-2.442 -2.503,-2.718 -0.029,-0.672 1.755,-0.301 3.208,-0.451 1.452,-0.149 2.356,-1.394 2.695,-1.944 0.339,-0.551 0.115,-1.727 -0.139,-2.129 C 14.162,11.871 10.051,12.018 9.704,11.737 9.509,11.578 9.169,11.221 9.418,10.893 10.396,9.601 12.742,10.787 13.599,9.866 14.188,9.233 14.254,8.688 14.34,8.202 14.39,7.92 14.602,7.39 14.036,6.804 13.548,6.299 10.568,7.043 9.405,6.529 9.033,6.365 8.747,5.923 8.714,5.608 8.682,5.294 9.226,4.802 9.771,4.706 10.242,4.623 12.344,4.638 13.019,4.251 13.678,3.873 14.242,3.41 14.183,2.464 14.124,1.518 13.766,1.244 13.314,0.966 12.764,0.626 9.811,1.248 9.182,0.917 8.686,0.655 8.297,-0.88 8.843,-1.589 9.508,-2.45 17.212,-4.318 19.138,-4.517 20.553,-4.663 22.58,-3.84 23.089,-4.29 23.599,-4.738 19.985,-7.065 18.695,-7.646 17.7,-8.094 17.682,-8.767 16.529,-9.01 15.935,-9.136 11.384,-6.97 10.544,-6.646 8.052,-5.681 5.536,-4.962 4.646,-4.964 2.887,-4.97 1.943,-5.003 0.881,-5.688 c -1.064,-0.683 -3.972,-5.779 -4.368,-6.176 -0.399,-0.396 -0.597,-0.629 -1.537,-0.476 -0.665,0.11 -0.747,0.275 -1.202,0.878 -0.656,0.873 -0.607,4.667 -0.335,5.393 0.273,0.725 0.592,0.534 0.943,1.252 0.353,0.717 1.717,10.101 1.859,11.475 0.142,1.375 0.27,7.592 -0.169,8.351 -0.436,0.76 -2.285,1.891 -2.789,2.194 -0.347,0.207 -0.239,0.555 -0.213,1.014 0.015,0.279 -0.142,0.598 0.098,0.941 0.465,0.667 0.864,0.436 2.076,1.295 2.057,1.453 4.764,8.437 6.956,8.17"
             style="fill:#231815;fill-opacity:1;fill-rule:nonzero;stroke:none"
             id="path3558" /></g></g></g></g></svg>